<svg xmlns="http://www.w3.org/2000/svg" xmlns:xlink="http://www.w3.org/1999/xlink" width="500" zoomAndPan="magnify" viewBox="0 0 375 374.999991" height="500" preserveAspectRatio="xMidYMid meet" version="1.0"><defs><g/><clipPath id="4a14bab21d"><path d="M 167.199219 143.796875 L 202.449219 143.796875 L 202.449219 177.546875 L 167.199219 177.546875 Z M 167.199219 143.796875 " clip-rule="nonzero"/></clipPath><clipPath id="35eeee52ac"><path d="M 180.191406 143.492188 L 210.191406 143.492188 L 210.191406 179.492188 L 180.191406 179.492188 Z M 180.191406 143.492188 " clip-rule="nonzero"/></clipPath></defs><rect x="-37.5" width="450" fill="#ffffff" y="-37.499999" height="449.999989" fill-opacity="1"/><rect x="-37.5" width="450" fill="#000000" y="-37.499999" height="449.999989" fill-opacity="1"/><g clip-path="url(#4a14bab21d)"><path fill="#ffffff" d="M 193.292969 177.542969 L 193.292969 143.796875 C 193.195312 143.792969 193.09375 143.792969 192.996094 143.792969 L 176.707031 143.792969 L 176.707031 177.542969 L 193.292969 177.542969 M 174.15625 177.542969 L 176.707031 177.542969 L 176.707031 143.796875 L 176.648438 143.796875 C 172.527344 143.796875 168.910156 147.15625 168.613281 151.253906 L 167.21875 170.097656 C 166.914062 174.1875 170.035156 177.542969 174.15625 177.542969 M 195.488281 177.542969 C 199.609375 177.542969 202.730469 174.1875 202.425781 170.089844 L 201.03125 151.246094 C 200.734375 147.246094 197.28125 143.953125 193.285156 143.796875 L 193.285156 177.542969 L 195.488281 177.542969 " fill-opacity="1" fill-rule="nonzero"/></g><path fill="#ffffff" d="M 206.257812 153.265625 L 184.050781 153.265625 L 181.65625 178.929688 L 209.5 178.4375 Z M 206.257812 153.265625 " fill-opacity="1" fill-rule="nonzero"/><path fill="#ffffff" d="M 200.804688 163.523438 L 199.09375 162.164062 L 197.4375 162.035156 L 195.347656 163.03125 L 194.9375 162.746094 L 193.421875 162.035156 L 192 162.117188 L 190.132812 163.207031 L 189.578125 164.9375 L 189.738281 166.609375 L 191.507812 169.210938 L 193.183594 171.039062 L 195.492188 172.570312 L 196.726562 171.558594 L 199.710938 168.925781 L 201.183594 165.519531 Z M 200.804688 163.523438 " fill-opacity="1" fill-rule="nonzero"/><g clip-path="url(#35eeee52ac)"><path fill="#000000" d="M 210.0625 178 L 207.386719 153.980469 C 207.292969 153.160156 206.542969 152.492188 205.71875 152.492188 L 201.207031 152.492188 L 201.207031 149.492188 C 201.207031 146.175781 198.511719 143.492188 195.191406 143.492188 C 191.867188 143.492188 189.175781 146.175781 189.175781 149.492188 L 189.175781 152.492188 L 184.664062 152.492188 C 183.835938 152.492188 183.085938 153.160156 182.992188 153.980469 L 180.316406 178 C 180.226562 178.820312 180.828125 179.492188 181.65625 179.492188 L 208.722656 179.492188 C 209.550781 179.492188 210.152344 178.820312 210.0625 178 Z M 190.679688 149.492188 C 190.679688 147.007812 192.703125 144.992188 195.191406 144.992188 C 197.675781 144.992188 199.703125 147.007812 199.703125 149.492188 L 199.703125 152.492188 L 190.679688 152.492188 Z M 181.832031 177.988281 L 184.488281 154.148438 C 184.496094 154.085938 184.601562 153.992188 184.664062 153.992188 L 189.175781 153.992188 L 189.175781 156.964844 C 189.175781 156.976562 189.175781 156.984375 189.175781 156.992188 C 189.175781 157.40625 189.511719 157.738281 189.925781 157.738281 C 190.34375 157.738281 190.679688 157.40625 190.679688 156.992188 C 190.679688 156.984375 190.675781 156.976562 190.675781 156.964844 L 190.679688 156.964844 L 190.679688 153.992188 L 199.703125 153.992188 L 199.703125 156.964844 C 199.703125 156.976562 199.703125 156.984375 199.703125 156.992188 C 199.703125 157.40625 200.039062 157.738281 200.453125 157.738281 C 200.867188 157.738281 201.207031 157.40625 201.207031 156.992188 C 201.207031 156.984375 201.203125 156.976562 201.203125 156.964844 L 201.207031 156.964844 L 201.207031 153.992188 L 205.71875 153.992188 C 205.777344 153.992188 205.886719 154.085938 205.890625 154.148438 L 208.546875 177.988281 Z M 181.832031 177.988281 " fill-opacity="1" fill-rule="nonzero"/></g><path fill="#000000" d="M 198.007812 161.113281 C 196.90625 161.113281 195.90625 161.570312 195.191406 162.296875 C 194.472656 161.570312 193.476562 161.113281 192.371094 161.113281 C 190.191406 161.113281 188.421875 162.878906 188.421875 165.050781 C 188.421875 169.550781 195.191406 173.488281 195.191406 173.488281 C 195.191406 173.488281 201.957031 169.550781 201.957031 165.050781 C 201.957031 162.878906 200.191406 161.113281 198.007812 161.113281 Z M 199.640625 167.449219 C 199.15625 168.21875 198.46875 169.015625 197.59375 169.820312 C 196.707031 170.636719 195.800781 171.296875 195.1875 171.710938 C 194.589844 171.304688 193.707031 170.660156 192.824219 169.855469 C 191.9375 169.046875 191.242188 168.242188 190.753906 167.46875 C 190.203125 166.605469 189.925781 165.792969 189.925781 165.050781 C 189.925781 163.710938 191.023438 162.617188 192.371094 162.617188 C 193.03125 162.617188 193.652344 162.875 194.117188 163.347656 L 195.191406 164.441406 L 196.265625 163.347656 C 196.726562 162.875 197.347656 162.617188 198.011719 162.617188 C 199.359375 162.617188 200.453125 163.710938 200.453125 165.050781 C 200.453125 165.785156 200.179688 166.589844 199.640625 167.449219 Z M 199.640625 167.449219 " fill-opacity="1" fill-rule="nonzero"/><g fill="#ffffff" fill-opacity="1"><g transform="translate(78.374999, 211.571705)"><g><path d="M 9.59375 -20.078125 C 12.800781 -20.078125 15.222656 -19.222656 16.859375 -17.515625 C 18.492188 -15.816406 19.3125 -13.316406 19.3125 -10.015625 C 19.3125 -6.691406 18.5 -4.191406 16.875 -2.515625 C 15.25 -0.835938 12.820312 0 9.59375 0 L 3 0 L 3 -20.078125 Z M 9.59375 -1.828125 C 12.132812 -1.828125 14.039062 -2.488281 15.3125 -3.8125 C 16.59375 -5.132812 17.234375 -7.226562 17.234375 -10.09375 C 17.234375 -12.882812 16.582031 -14.941406 15.28125 -16.265625 C 13.988281 -17.585938 12.09375 -18.25 9.59375 -18.25 L 5.03125 -18.25 L 5.03125 -1.828125 Z M 9.59375 -1.828125 "/></g></g></g><g fill="#ffffff" fill-opacity="1"><g transform="translate(99.420785, 211.571705)"><g><path d="M 13.640625 -6.28125 L 5.171875 -6.28125 L 2.8125 0 L 0.6875 0 L 8.375 -20.3125 L 10.4375 -20.3125 L 18.140625 0 L 16.015625 0 Z M 12.921875 -8.15625 L 9.40625 -17.5 L 5.875 -8.15625 Z M 12.921875 -8.15625 "/></g></g></g><g fill="#ffffff" fill-opacity="1"><g transform="translate(118.24287, 211.571705)"><g><path d="M 17.71875 -20.078125 L 17.71875 0 L 15.59375 0 L 5.03125 -16.546875 L 5.03125 0 L 3 0 L 3 -20.078125 L 5.140625 -20.078125 L 15.671875 -3.515625 L 15.671875 -20.078125 Z M 17.71875 -20.078125 "/></g></g></g><g fill="#ffffff" fill-opacity="1"><g transform="translate(138.94451, 211.571705)"><g><path d="M 3 -20.078125 L 5.03125 -20.078125 L 5.03125 0 L 3 0 Z M 3 -20.078125 "/></g></g></g><g fill="#ffffff" fill-opacity="1"><g transform="translate(146.965731, 211.571705)"><g/></g></g><g fill="#ffffff" fill-opacity="1"><g transform="translate(152.78972, 211.571705)"><g><path d="M 21.1875 -20.078125 L 21.1875 0 L 19.140625 0 L 19.140625 -16.890625 L 12.640625 -7.859375 L 11.546875 -7.859375 L 5.03125 -16.890625 L 5.03125 0 L 3 0 L 3 -20.078125 L 5.171875 -20.078125 L 12.109375 -10.46875 L 19.046875 -20.078125 Z M 21.1875 -20.078125 "/></g></g></g><g fill="#ffffff" fill-opacity="1"><g transform="translate(176.959285, 211.571705)"><g><path d="M 15.046875 -1.828125 L 15.046875 0 L 3 0 L 3 -20.078125 L 14.90625 -20.078125 L 14.90625 -18.25 L 5.03125 -18.25 L 5.03125 -11.015625 L 13.59375 -11.015625 L 13.59375 -9.1875 L 5.03125 -9.1875 L 5.03125 -1.828125 Z M 15.046875 -1.828125 "/></g></g></g><g fill="#ffffff" fill-opacity="1"><g transform="translate(193.584128, 211.571705)"><g><path d="M 9.59375 -20.078125 C 12.800781 -20.078125 15.222656 -19.222656 16.859375 -17.515625 C 18.492188 -15.816406 19.3125 -13.316406 19.3125 -10.015625 C 19.3125 -6.691406 18.5 -4.191406 16.875 -2.515625 C 15.25 -0.835938 12.820312 0 9.59375 0 L 3 0 L 3 -20.078125 Z M 9.59375 -1.828125 C 12.132812 -1.828125 14.039062 -2.488281 15.3125 -3.8125 C 16.59375 -5.132812 17.234375 -7.226562 17.234375 -10.09375 C 17.234375 -12.882812 16.582031 -14.941406 15.28125 -16.265625 C 13.988281 -17.585938 12.09375 -18.25 9.59375 -18.25 L 5.03125 -18.25 L 5.03125 -1.828125 Z M 9.59375 -1.828125 "/></g></g></g><g fill="#ffffff" fill-opacity="1"><g transform="translate(214.629914, 211.571705)"><g><path d="M 15.046875 -1.828125 L 15.046875 0 L 3 0 L 3 -20.078125 L 14.90625 -20.078125 L 14.90625 -18.25 L 5.03125 -18.25 L 5.03125 -11.015625 L 13.59375 -11.015625 L 13.59375 -9.1875 L 5.03125 -9.1875 L 5.03125 -1.828125 Z M 15.046875 -1.828125 "/></g></g></g><g fill="#ffffff" fill-opacity="1"><g transform="translate(231.254756, 211.571705)"><g><path d="M 3 -20.078125 L 5.03125 -20.078125 L 5.03125 0 L 3 0 Z M 3 -20.078125 "/></g></g></g><g fill="#ffffff" fill-opacity="1"><g transform="translate(239.275977, 211.571705)"><g><path d="M 9.328125 -8.796875 L 5.03125 -8.796875 L 5.03125 0 L 3 0 L 3 -20.078125 L 9.765625 -20.078125 C 13.953125 -20.078125 16.046875 -18.1875 16.046875 -14.40625 C 16.046875 -12.851562 15.671875 -11.613281 14.921875 -10.6875 C 14.171875 -9.757812 13.035156 -9.171875 11.515625 -8.921875 L 17.0625 0 L 14.71875 0 Z M 5.03125 -10.625 L 9.765625 -10.625 C 12.554688 -10.625 13.953125 -11.910156 13.953125 -14.484375 C 13.953125 -15.796875 13.601562 -16.75 12.90625 -17.34375 C 12.207031 -17.945312 11.160156 -18.25 9.765625 -18.25 L 5.03125 -18.25 Z M 5.03125 -10.625 "/></g></g></g><g fill="#ffffff" fill-opacity="1"><g transform="translate(257.753915, 211.571705)"><g><path d="M 11.046875 0.453125 C 9.015625 0.453125 7.289062 0 5.875 -0.90625 C 4.46875 -1.820312 3.410156 -3.066406 2.703125 -4.640625 C 1.992188 -6.222656 1.640625 -8.015625 1.640625 -10.015625 C 1.640625 -11.972656 1.992188 -13.738281 2.703125 -15.3125 C 3.410156 -16.882812 4.46875 -18.132812 5.875 -19.0625 C 7.289062 -19.988281 9.015625 -20.453125 11.046875 -20.453125 C 13.035156 -20.453125 14.738281 -19.988281 16.15625 -19.0625 C 17.570312 -18.132812 18.632812 -16.878906 19.34375 -15.296875 C 20.0625 -13.710938 20.421875 -11.953125 20.421875 -10.015625 C 20.421875 -8.015625 20.0625 -6.222656 19.34375 -4.640625 C 18.632812 -3.066406 17.570312 -1.820312 16.15625 -0.90625 C 14.738281 0 13.035156 0.453125 11.046875 0.453125 Z M 11.046875 -1.375 C 12.566406 -1.375 13.875 -1.753906 14.96875 -2.515625 C 16.0625 -3.273438 16.894531 -4.316406 17.46875 -5.640625 C 18.039062 -6.960938 18.328125 -8.445312 18.328125 -10.09375 C 18.328125 -11.675781 18.039062 -13.113281 17.46875 -14.40625 C 16.894531 -15.695312 16.054688 -16.722656 14.953125 -17.484375 C 13.847656 -18.242188 12.546875 -18.625 11.046875 -18.625 C 9.492188 -18.625 8.164062 -18.242188 7.0625 -17.484375 C 5.957031 -16.722656 5.125 -15.6875 4.5625 -14.375 C 4.007812 -13.070312 3.734375 -11.617188 3.734375 -10.015625 C 3.734375 -8.367188 4.007812 -6.890625 4.5625 -5.578125 C 5.125 -4.273438 5.957031 -3.25 7.0625 -2.5 C 8.164062 -1.75 9.492188 -1.375 11.046875 -1.375 Z M 11.046875 -1.375 "/></g></g></g><g fill="#ffffff" fill-opacity="1"><g transform="translate(279.77919, 211.571705)"><g><path d="M 8.421875 0.453125 C 5.910156 0.453125 3.664062 -0.0234375 1.6875 -0.984375 L 1.6875 -2.90625 C 3.65625 -1.882812 5.898438 -1.375 8.421875 -1.375 C 9.992188 -1.375 11.144531 -1.707031 11.875 -2.375 C 12.613281 -3.050781 12.988281 -3.945312 13 -5.0625 C 13 -6.101562 12.65625 -6.890625 11.96875 -7.421875 C 11.28125 -7.960938 10.316406 -8.410156 9.078125 -8.765625 L 7.28125 -9.265625 C 6.28125 -9.566406 5.421875 -9.90625 4.703125 -10.28125 C 3.984375 -10.664062 3.390625 -11.222656 2.921875 -11.953125 C 2.453125 -12.691406 2.21875 -13.632812 2.21875 -14.78125 C 2.21875 -16.632812 2.75 -18.039062 3.8125 -19 C 4.882812 -19.96875 6.394531 -20.453125 8.34375 -20.453125 C 9.488281 -20.453125 10.503906 -20.34375 11.390625 -20.125 C 12.273438 -19.914062 13.175781 -19.585938 14.09375 -19.140625 L 14.09375 -17.234375 C 12.3125 -18.160156 10.394531 -18.625 8.34375 -18.625 C 6.96875 -18.625 5.945312 -18.28125 5.28125 -17.59375 C 4.625 -16.914062 4.296875 -15.992188 4.296875 -14.828125 C 4.304688 -13.773438 4.625 -12.984375 5.25 -12.453125 C 5.882812 -11.929688 6.816406 -11.503906 8.046875 -11.171875 L 9.875 -10.671875 C 10.9375 -10.390625 11.835938 -10.046875 12.578125 -9.640625 C 13.316406 -9.234375 13.914062 -8.660156 14.375 -7.921875 C 14.832031 -7.191406 15.0625 -6.242188 15.0625 -5.078125 C 15.050781 -3.367188 14.457031 -2.019531 13.28125 -1.03125 C 12.101562 -0.0390625 10.484375 0.453125 8.421875 0.453125 Z M 8.421875 0.453125 "/></g></g></g><g fill="#ffffff" fill-opacity="1"><g transform="translate(148.992182, 228.054359)"><g><path d="M 8.59375 0 L 8.59375 -3.96875 C 8.59375 -4.5625 8.472656 -4.992188 8.234375 -5.265625 C 8.003906 -5.535156 7.65625 -5.671875 7.1875 -5.671875 C 6.5625 -5.671875 6.097656 -5.5 5.796875 -5.15625 C 5.503906 -4.820312 5.359375 -4.285156 5.359375 -3.546875 L 5.359375 0 L 4.796875 0 L 4.796875 -4.140625 C 4.796875 -5.160156 4.328125 -5.671875 3.390625 -5.671875 C 2.753906 -5.671875 2.289062 -5.484375 2 -5.109375 C 1.707031 -4.742188 1.5625 -4.15625 1.5625 -3.34375 L 1.5625 0 L 1.015625 0 L 1.015625 -6.0625 L 1.46875 -6.0625 L 1.59375 -5.234375 L 1.625 -5.234375 C 1.789062 -5.535156 2.023438 -5.765625 2.328125 -5.921875 C 2.640625 -6.085938 2.984375 -6.171875 3.359375 -6.171875 C 4.316406 -6.171875 4.929688 -5.816406 5.203125 -5.109375 L 5.21875 -5.109375 C 5.414062 -5.453125 5.679688 -5.710938 6.015625 -5.890625 C 6.347656 -6.078125 6.726562 -6.171875 7.15625 -6.171875 C 7.8125 -6.171875 8.304688 -5.992188 8.640625 -5.640625 C 8.972656 -5.296875 9.140625 -4.738281 9.140625 -3.96875 L 9.140625 0 Z M 8.59375 0 "/></g></g></g><g fill="#ffffff" fill-opacity="1"><g transform="translate(159.068659, 228.054359)"><g><path d="M 6.03125 -3.046875 C 6.03125 -2.054688 5.789062 -1.28125 5.3125 -0.71875 C 4.832031 -0.164062 4.171875 0.109375 3.328125 0.109375 C 2.796875 0.109375 2.328125 -0.015625 1.921875 -0.265625 C 1.515625 -0.523438 1.203125 -0.894531 0.984375 -1.375 C 0.765625 -1.851562 0.65625 -2.410156 0.65625 -3.046875 C 0.65625 -4.023438 0.894531 -4.789062 1.375 -5.34375 C 1.863281 -5.894531 2.523438 -6.171875 3.359375 -6.171875 C 4.191406 -6.171875 4.84375 -5.890625 5.3125 -5.328125 C 5.789062 -4.773438 6.03125 -4.015625 6.03125 -3.046875 Z M 1.25 -3.046875 C 1.25 -2.210938 1.429688 -1.5625 1.796875 -1.09375 C 2.160156 -0.625 2.675781 -0.390625 3.34375 -0.390625 C 4.007812 -0.390625 4.523438 -0.625 4.890625 -1.09375 C 5.265625 -1.5625 5.453125 -2.210938 5.453125 -3.046875 C 5.453125 -3.878906 5.265625 -4.523438 4.890625 -4.984375 C 4.523438 -5.441406 4.003906 -5.671875 3.328125 -5.671875 C 2.660156 -5.671875 2.144531 -5.441406 1.78125 -4.984375 C 1.425781 -4.523438 1.25 -3.878906 1.25 -3.046875 Z M 1.25 -3.046875 "/></g></g></g><g fill="#ffffff" fill-opacity="1"><g transform="translate(165.756585, 228.054359)"><g><path d="M 3.234375 -6.171875 C 3.671875 -6.171875 4.050781 -6.09375 4.375 -5.9375 C 4.695312 -5.78125 4.984375 -5.507812 5.234375 -5.125 L 5.265625 -5.125 C 5.242188 -5.59375 5.234375 -6.050781 5.234375 -6.5 L 5.234375 -8.671875 L 5.78125 -8.671875 L 5.78125 0 L 5.421875 0 L 5.28125 -0.921875 L 5.234375 -0.921875 C 4.773438 -0.234375 4.113281 0.109375 3.25 0.109375 C 2.40625 0.109375 1.757812 -0.148438 1.3125 -0.671875 C 0.875 -1.191406 0.65625 -1.945312 0.65625 -2.9375 C 0.65625 -3.988281 0.875 -4.789062 1.3125 -5.34375 C 1.757812 -5.894531 2.398438 -6.171875 3.234375 -6.171875 Z M 3.234375 -5.671875 C 2.566406 -5.671875 2.066406 -5.4375 1.734375 -4.96875 C 1.410156 -4.507812 1.25 -3.835938 1.25 -2.953125 C 1.25 -1.234375 1.914062 -0.375 3.25 -0.375 C 3.925781 -0.375 4.425781 -0.570312 4.75 -0.96875 C 5.070312 -1.375 5.234375 -2.03125 5.234375 -2.9375 L 5.234375 -3.046875 C 5.234375 -3.972656 5.070312 -4.640625 4.75 -5.046875 C 4.4375 -5.460938 3.929688 -5.671875 3.234375 -5.671875 Z M 3.234375 -5.671875 "/></g></g></g><g fill="#ffffff" fill-opacity="1"><g transform="translate(172.550404, 228.054359)"><g><path d="M 4.703125 0 L 4.5625 -0.953125 L 4.515625 -0.953125 C 4.203125 -0.566406 3.882812 -0.289062 3.5625 -0.125 C 3.25 0.03125 2.875 0.109375 2.4375 0.109375 C 1.84375 0.109375 1.378906 -0.0390625 1.046875 -0.34375 C 0.710938 -0.644531 0.546875 -1.066406 0.546875 -1.609375 C 0.546875 -2.203125 0.789062 -2.660156 1.28125 -2.984375 C 1.78125 -3.316406 2.492188 -3.492188 3.421875 -3.515625 L 4.578125 -3.546875 L 4.578125 -3.9375 C 4.578125 -4.519531 4.457031 -4.957031 4.21875 -5.25 C 3.988281 -5.539062 3.613281 -5.6875 3.09375 -5.6875 C 2.53125 -5.6875 1.945312 -5.53125 1.34375 -5.21875 L 1.140625 -5.703125 C 1.804688 -6.015625 2.46875 -6.171875 3.125 -6.171875 C 3.78125 -6.171875 4.273438 -5.992188 4.609375 -5.640625 C 4.941406 -5.296875 5.109375 -4.757812 5.109375 -4.03125 L 5.109375 0 Z M 2.46875 -0.390625 C 3.113281 -0.390625 3.625 -0.570312 4 -0.9375 C 4.375 -1.3125 4.5625 -1.828125 4.5625 -2.484375 L 4.5625 -3.078125 L 3.5 -3.046875 C 2.644531 -3.003906 2.035156 -2.867188 1.671875 -2.640625 C 1.304688 -2.410156 1.125 -2.0625 1.125 -1.59375 C 1.125 -1.207031 1.238281 -0.910156 1.46875 -0.703125 C 1.707031 -0.492188 2.039062 -0.390625 2.46875 -0.390625 Z M 2.46875 -0.390625 "/></g></g></g><g fill="#ffffff" fill-opacity="1"><g transform="translate(178.597405, 228.054359)"><g/></g></g><g fill="#ffffff" fill-opacity="1"><g transform="translate(181.562386, 228.054359)"><g><path d="M 3.265625 -5.578125 L 1.84375 -5.578125 L 1.84375 0 L 1.28125 0 L 1.28125 -5.578125 L 0.15625 -5.578125 L 0.15625 -5.90625 L 1.28125 -6.109375 L 1.28125 -6.578125 C 1.28125 -7.328125 1.414062 -7.875 1.6875 -8.21875 C 1.96875 -8.5625 2.421875 -8.734375 3.046875 -8.734375 C 3.378906 -8.734375 3.710938 -8.6875 4.046875 -8.59375 L 3.921875 -8.109375 C 3.617188 -8.203125 3.320312 -8.25 3.03125 -8.25 C 2.59375 -8.25 2.285156 -8.117188 2.109375 -7.859375 C 1.929688 -7.609375 1.84375 -7.195312 1.84375 -6.625 L 1.84375 -6.0625 L 3.265625 -6.0625 Z M 3.265625 -5.578125 "/></g></g></g><g fill="#ffffff" fill-opacity="1"><g transform="translate(184.984375, 228.054359)"><g><path d="M 3.46875 0.109375 C 2.582031 0.109375 1.890625 -0.160156 1.390625 -0.703125 C 0.898438 -1.242188 0.65625 -2.003906 0.65625 -2.984375 C 0.65625 -3.953125 0.894531 -4.722656 1.375 -5.296875 C 1.851562 -5.878906 2.492188 -6.171875 3.296875 -6.171875 C 4.015625 -6.171875 4.578125 -5.921875 4.984375 -5.421875 C 5.398438 -4.929688 5.609375 -4.257812 5.609375 -3.40625 L 5.609375 -2.953125 L 1.25 -2.953125 C 1.25 -2.117188 1.4375 -1.484375 1.8125 -1.046875 C 2.195312 -0.609375 2.75 -0.390625 3.46875 -0.390625 C 3.8125 -0.390625 4.113281 -0.410156 4.375 -0.453125 C 4.632812 -0.503906 4.96875 -0.613281 5.375 -0.78125 L 5.375 -0.265625 C 5.03125 -0.117188 4.710938 -0.0195312 4.421875 0.03125 C 4.128906 0.0820312 3.8125 0.109375 3.46875 0.109375 Z M 3.296875 -5.6875 C 2.710938 -5.6875 2.242188 -5.492188 1.890625 -5.109375 C 1.535156 -4.722656 1.332031 -4.171875 1.28125 -3.453125 L 5.03125 -3.453125 C 5.03125 -4.148438 4.875 -4.695312 4.5625 -5.09375 C 4.257812 -5.488281 3.835938 -5.6875 3.296875 -5.6875 Z M 3.296875 -5.6875 "/></g></g></g><g fill="#ffffff" fill-opacity="1"><g transform="translate(191.248733, 228.054359)"><g><path d="M 8.59375 0 L 8.59375 -3.96875 C 8.59375 -4.5625 8.472656 -4.992188 8.234375 -5.265625 C 8.003906 -5.535156 7.65625 -5.671875 7.1875 -5.671875 C 6.5625 -5.671875 6.097656 -5.5 5.796875 -5.15625 C 5.503906 -4.820312 5.359375 -4.285156 5.359375 -3.546875 L 5.359375 0 L 4.796875 0 L 4.796875 -4.140625 C 4.796875 -5.160156 4.328125 -5.671875 3.390625 -5.671875 C 2.753906 -5.671875 2.289062 -5.484375 2 -5.109375 C 1.707031 -4.742188 1.5625 -4.15625 1.5625 -3.34375 L 1.5625 0 L 1.015625 0 L 1.015625 -6.0625 L 1.46875 -6.0625 L 1.59375 -5.234375 L 1.625 -5.234375 C 1.789062 -5.535156 2.023438 -5.765625 2.328125 -5.921875 C 2.640625 -6.085938 2.984375 -6.171875 3.359375 -6.171875 C 4.316406 -6.171875 4.929688 -5.816406 5.203125 -5.109375 L 5.21875 -5.109375 C 5.414062 -5.453125 5.679688 -5.710938 6.015625 -5.890625 C 6.347656 -6.078125 6.726562 -6.171875 7.15625 -6.171875 C 7.8125 -6.171875 8.304688 -5.992188 8.640625 -5.640625 C 8.972656 -5.296875 9.140625 -4.738281 9.140625 -3.96875 L 9.140625 0 Z M 8.59375 0 "/></g></g></g><g fill="#ffffff" fill-opacity="1"><g transform="translate(201.325209, 228.054359)"><g><path d="M 1.5625 0 L 1.015625 0 L 1.015625 -6.0625 L 1.5625 -6.0625 Z M 0.9375 -7.75 C 0.9375 -8.101562 1.050781 -8.28125 1.28125 -8.28125 C 1.40625 -8.28125 1.5 -8.234375 1.5625 -8.140625 C 1.625 -8.046875 1.65625 -7.914062 1.65625 -7.75 C 1.65625 -7.582031 1.625 -7.445312 1.5625 -7.34375 C 1.5 -7.25 1.40625 -7.203125 1.28125 -7.203125 C 1.050781 -7.203125 0.9375 -7.382812 0.9375 -7.75 Z M 0.9375 -7.75 "/></g></g></g><g fill="#ffffff" fill-opacity="1"><g transform="translate(203.905634, 228.054359)"><g><path d="M 5.25 0 L 5.25 -3.9375 C 5.25 -4.539062 5.117188 -4.976562 4.859375 -5.25 C 4.597656 -5.53125 4.203125 -5.671875 3.671875 -5.671875 C 2.941406 -5.671875 2.40625 -5.488281 2.0625 -5.125 C 1.726562 -4.757812 1.5625 -4.164062 1.5625 -3.34375 L 1.5625 0 L 1.015625 0 L 1.015625 -6.0625 L 1.484375 -6.0625 L 1.59375 -5.234375 L 1.625 -5.234375 C 2.019531 -5.859375 2.71875 -6.171875 3.71875 -6.171875 C 5.09375 -6.171875 5.78125 -5.4375 5.78125 -3.96875 L 5.78125 0 Z M 5.25 0 "/></g></g></g><g fill="#ffffff" fill-opacity="1"><g transform="translate(210.638147, 228.054359)"><g><path d="M 1.5625 0 L 1.015625 0 L 1.015625 -6.0625 L 1.5625 -6.0625 Z M 0.9375 -7.75 C 0.9375 -8.101562 1.050781 -8.28125 1.28125 -8.28125 C 1.40625 -8.28125 1.5 -8.234375 1.5625 -8.140625 C 1.625 -8.046875 1.65625 -7.914062 1.65625 -7.75 C 1.65625 -7.582031 1.625 -7.445312 1.5625 -7.34375 C 1.5 -7.25 1.40625 -7.203125 1.28125 -7.203125 C 1.050781 -7.203125 0.9375 -7.382812 0.9375 -7.75 Z M 0.9375 -7.75 "/></g></g></g><g fill="#ffffff" fill-opacity="1"><g transform="translate(213.218573, 228.054359)"><g><path d="M 5.25 0 L 5.25 -3.9375 C 5.25 -4.539062 5.117188 -4.976562 4.859375 -5.25 C 4.597656 -5.53125 4.203125 -5.671875 3.671875 -5.671875 C 2.941406 -5.671875 2.40625 -5.488281 2.0625 -5.125 C 1.726562 -4.757812 1.5625 -4.164062 1.5625 -3.34375 L 1.5625 0 L 1.015625 0 L 1.015625 -6.0625 L 1.484375 -6.0625 L 1.59375 -5.234375 L 1.625 -5.234375 C 2.019531 -5.859375 2.71875 -6.171875 3.71875 -6.171875 C 5.09375 -6.171875 5.78125 -5.4375 5.78125 -3.96875 L 5.78125 0 Z M 5.25 0 "/></g></g></g><g fill="#ffffff" fill-opacity="1"><g transform="translate(219.951086, 228.054359)"><g><path d="M 4.703125 0 L 4.5625 -0.953125 L 4.515625 -0.953125 C 4.203125 -0.566406 3.882812 -0.289062 3.5625 -0.125 C 3.25 0.03125 2.875 0.109375 2.4375 0.109375 C 1.84375 0.109375 1.378906 -0.0390625 1.046875 -0.34375 C 0.710938 -0.644531 0.546875 -1.066406 0.546875 -1.609375 C 0.546875 -2.203125 0.789062 -2.660156 1.28125 -2.984375 C 1.78125 -3.316406 2.492188 -3.492188 3.421875 -3.515625 L 4.578125 -3.546875 L 4.578125 -3.9375 C 4.578125 -4.519531 4.457031 -4.957031 4.21875 -5.25 C 3.988281 -5.539062 3.613281 -5.6875 3.09375 -5.6875 C 2.53125 -5.6875 1.945312 -5.53125 1.34375 -5.21875 L 1.140625 -5.703125 C 1.804688 -6.015625 2.46875 -6.171875 3.125 -6.171875 C 3.78125 -6.171875 4.273438 -5.992188 4.609375 -5.640625 C 4.941406 -5.296875 5.109375 -4.757812 5.109375 -4.03125 L 5.109375 0 Z M 2.46875 -0.390625 C 3.113281 -0.390625 3.625 -0.570312 4 -0.9375 C 4.375 -1.3125 4.5625 -1.828125 4.5625 -2.484375 L 4.5625 -3.078125 L 3.5 -3.046875 C 2.644531 -3.003906 2.035156 -2.867188 1.671875 -2.640625 C 1.304688 -2.410156 1.125 -2.0625 1.125 -1.59375 C 1.125 -1.207031 1.238281 -0.910156 1.46875 -0.703125 C 1.707031 -0.492188 2.039062 -0.390625 2.46875 -0.390625 Z M 2.46875 -0.390625 "/></g></g></g></svg>